<svg width="120" height="120" viewBox="0 0 120 120" fill="none" xmlns="http://www.w3.org/2000/svg">
<path d="M60.6035 63.8995C60.2535 63.8495 59.8035 63.8495 59.4035 63.8995C50.6035 63.5995 43.6035 56.3995 43.6035 47.5494C43.6035 38.4994 50.9035 31.1494 60.0035 31.1494C69.0535 31.1494 76.4035 38.4994 76.4035 47.5494C76.3535 56.3995 69.4035 63.5995 60.6035 63.8995Z" stroke="#5B5B5B" stroke-width="2" stroke-linecap="round" stroke-linejoin="round"/>
<path d="M93.699 96.9008C84.799 105.051 72.999 110.001 59.999 110.001C46.9988 110.001 35.1988 105.051 26.2988 96.9008C26.7988 92.2008 29.7988 87.6008 35.1488 84.0008C48.8488 74.9008 71.249 74.9008 84.849 84.0008C90.199 87.6008 93.199 92.2008 93.699 96.9008Z" stroke="#5B5B5B" stroke-width="2" stroke-linecap="round" stroke-linejoin="round"/>
<path d="M60 110C87.614 110 110 87.614 110 60C110 32.3857 87.614 10 60 10C32.3857 10 10 32.3857 10 60C10 87.614 32.3857 110 60 110Z" stroke="#5B5B5B" stroke-width="2" stroke-linecap="round" stroke-linejoin="round"/>
</svg>
